<?xml version="1.0" standalone="no"?>
<!DOCTYPE svg PUBLIC "-//W3C//DTD SVG 20010904//EN"
 "http://www.w3.org/TR/2001/REC-SVG-20010904/DTD/svg10.dtd">
<svg version="1.0" xmlns="http://www.w3.org/2000/svg"
 width="267.000000pt" height="248.000000pt" viewBox="0 0 267.000000 248.000000"
 preserveAspectRatio="xMidYMid meet">
<metadata>
Created by potrace 1.10, written by Peter Selinger 2001-2011
</metadata>
<g transform="translate(0.000000,248.000000) scale(0.050000,-0.050000)"
fill="#ff0000" stroke="none">
<path d="M2420 4780 c-1708 -167 -2621 -2128 -1663 -3576 892 -1350 2934
-1350 3827 0 1083 1638 -205 3767 -2164 3576z m370 -179 c55 -10 150 -23 212
-29 62 -6 137 -20 167 -31 30 -12 62 -17 70 -11 22 13 143 -29 183 -63 17 -15
46 -27 65 -27 18 0 33 -7 33 -15 0 -15 126 -65 174 -69 13 -2 20 -10 14 -19
-6 -9 3 -17 19 -17 16 0 56 -26 90 -57 34 -32 66 -54 71 -48 15 15 153 -98
141 -117 -6 -9 12 -23 40 -30 28 -7 51 -21 51 -31 0 -11 7 -15 16 -9 9 5 32
-17 51 -49 20 -32 44 -59 54 -59 10 0 41 -36 69 -81 28 -44 69 -98 90 -119 36
-36 204 -327 201 -349 -5 -38 2 -51 28 -51 21 0 28 -19 24 -70 -3 -38 -1 -65
4 -59 16 15 61 -126 94 -288 57 -289 23 -858 -67 -1083 -6 -16 -12 -40 -13
-52 -1 -12 -17 -53 -35 -90 -19 -37 -49 -106 -68 -152 -19 -46 -43 -79 -52
-74 -9 6 -16 4 -14 -6 1 -9 1 -23 -2 -31 -8 -24 -15 -54 -17 -75 -2 -11 -16
-20 -33 -20 -16 0 -42 -29 -57 -65 -37 -86 -193 -258 -219 -242 -11 7 -14 4
-7 -8 7 -11 -8 -34 -34 -51 -26 -17 -88 -66 -137 -108 -50 -42 -125 -105 -168
-141 -42 -36 -94 -65 -116 -65 -21 0 -55 -14 -74 -32 -66 -59 -401 -185 -470
-176 -36 4 -71 -1 -78 -12 -7 -11 -21 -16 -31 -10 -10 6 -71 -2 -136 -19 -134
-35 -368 -39 -503 -9 -49 10 -124 23 -166 28 -91 11 -227 56 -333 109 -42 22
-81 35 -87 29 -6 -6 -37 3 -70 20 -32 17 -65 25 -71 18 -7 -7 -13 -4 -13 6 0
10 -34 36 -75 58 -109 56 -166 102 -149 121 8 8 3 9 -9 2 -13 -7 -36 -2 -50
12 -15 14 -52 38 -82 53 -30 16 -55 36 -55 45 0 8 -67 83 -150 166 -82 83
-145 151 -139 151 6 0 -6 18 -27 40 -21 23 -49 65 -63 95 -14 30 -35 73 -47
95 -83 154 -134 261 -134 281 0 38 -52 130 -66 116 -7 -6 -11 26 -9 72 2 51
-7 90 -23 100 -17 11 -27 66 -29 168 -2 84 -11 153 -21 153 -16 0 -10 177 18
560 5 71 19 133 30 137 11 3 20 24 20 45 0 21 8 38 18 38 9 0 23 28 29 61 8
38 21 56 35 48 16 -10 16 -2 -1 29 -12 23 -14 42 -4 42 10 0 24 32 32 70 7 39
21 70 31 70 9 0 29 32 43 70 14 39 32 70 39 70 8 0 21 27 28 60 7 33 23 60 35
60 12 0 16 5 10 12 -21 20 329 384 423 440 32 19 64 52 69 72 5 20 17 35 26
32 20 -6 241 118 257 144 6 9 40 23 75 31 36 7 83 23 105 35 22 12 49 24 60
26 11 2 52 17 90 34 39 16 124 30 190 32 80 2 124 13 135 32 9 16 28 24 42 18
14 -5 45 -2 68 6 65 24 223 27 335 7z"/>
<path d="M1632 3896 c-65 -46 -153 -118 -196 -160 -43 -42 -86 -72 -96 -66
-10 6 -13 -13 -8 -41 7 -40 0 -55 -31 -63 -23 -6 -41 -22 -41 -36 0 -14 -13
-31 -29 -37 -51 -20 -49 -177 4 -220 25 -20 41 -43 36 -52 -6 -8 138 -167 320
-351 387 -395 382 -380 164 -594 -30 -30 -55 -63 -55 -74 0 -11 -16 -24 -35
-31 -42 -13 -253 -214 -325 -309 -27 -36 -59 -76 -71 -89 -87 -97 -74 -329 21
-366 16 -6 25 -19 19 -29 -6 -10 1 -18 17 -18 30 0 214 -173 214 -202 0 -10
13 -18 29 -18 16 0 38 -16 49 -35 56 -102 269 -83 382 34 28 29 68 65 90 82
23 16 57 54 77 85 19 31 51 62 69 68 37 14 155 106 135 106 -7 0 17 31 52 70
35 38 73 70 85 70 12 0 35 20 51 45 29 44 34 55 39 95 5 44 47 24 153 -73 25
-23 52 -38 58 -32 6 7 11 -3 11 -22 0 -18 7 -32 15 -30 8 2 92 -70 185 -160
94 -89 177 -163 185 -163 8 0 15 -8 15 -18 0 -24 117 -142 141 -142 9 0 26
-15 36 -34 11 -20 48 -37 86 -39 37 -3 97 -8 133 -12 37 -4 72 1 78 12 7 11 1
13 -16 3 -36 -22 95 101 202 187 45 37 78 72 72 78 -6 6 11 27 37 48 98 77
188 272 145 315 -12 12 -16 22 -10 22 14 0 -43 73 -128 164 -30 32 -54 62 -54
68 0 6 -108 115 -241 243 -132 127 -241 244 -241 258 0 15 -10 27 -22 27 -14
0 -17 19 -9 51 14 59 186 235 212 218 9 -5 13 8 9 30 -5 25 3 41 20 41 15 0
33 18 40 39 6 21 30 45 51 51 21 7 39 26 39 42 0 16 16 35 35 42 43 15 191
170 253 266 42 64 82 208 53 190 -7 -4 -24 19 -38 50 -67 152 -445 480 -552
480 -60 0 -230 -98 -248 -143 -3 -9 -14 -17 -22 -17 -9 0 -53 -37 -98 -82 -50
-50 -91 -75 -106 -66 -16 10 -20 4 -12 -16 13 -34 -105 -173 -181 -214 -24
-13 -44 -33 -44 -45 0 -23 -104 -111 -117 -100 -5 3 -15 -4 -23 -17 -21 -34
-94 5 -177 97 -37 40 -61 60 -53 43 7 -16 -6 -7 -30 20 -246 285 -564 560
-648 560 -23 0 -95 -38 -160 -84z m601 -517 l439 -441 435 441 c239 242 438
441 442 441 10 0 451 -436 451 -445 0 -4 -198 -204 -440 -445 l-439 -438 440
-431 c241 -237 438 -440 436 -451 -1 -11 -103 -117 -226 -235 l-223 -215 -419
420 c-230 232 -422 430 -426 441 -8 25 -58 25 -66 0 -4 -11 -196 -209 -426
-441 l-419 -420 -223 215 c-123 118 -225 225 -226 236 -2 12 194 215 436 452
l439 431 -439 437 c-242 240 -439 441 -439 445 0 12 428 441 442 443 6 0 209
-198 451 -440z"/>
</g>
</svg>
