<?xml version="1.0" standalone="no"?>
<!DOCTYPE svg PUBLIC "-//W3C//DTD SVG 20010904//EN"
 "http://www.w3.org/TR/2001/REC-SVG-20010904/DTD/svg10.dtd">
<svg version="1.0" xmlns="http://www.w3.org/2000/svg"
 width="236.000000pt" height="238.000000pt" viewBox="0 0 236.000000 238.000000"
 preserveAspectRatio="xMidYMid meet">
<metadata>
Created by potrace 1.10, written by Peter Selinger 2001-2011
</metadata>
<g transform="translate(0.000000,238.000000) scale(0.050000,-0.050000)"
fill="#38761d" stroke="none">
<path d="M2080 4627 c-1592 -160 -2537 -1938 -1788 -3364 662 -1261 2310
-1620 3448 -752 949 723 1177 2094 514 3089 -483 724 -1307 1113 -2174 1027z
m720 -211 c39 -12 97 -34 130 -48 36 -16 67 -19 78 -8 18 18 166 -48 193 -85
7 -9 33 -20 58 -25 50 -9 117 -49 166 -98 17 -17 43 -33 58 -36 39 -9 224
-137 243 -169 9 -15 25 -23 35 -16 11 6 19 -2 19 -17 0 -16 14 -40 30 -54 17
-14 27 -29 23 -34 -5 -4 58 -74 139 -154 82 -80 148 -156 148 -169 0 -13 8
-23 17 -23 9 0 28 -36 43 -80 15 -44 34 -80 43 -80 9 0 17 -16 17 -36 0 -20
18 -56 41 -80 22 -24 31 -44 19 -44 -12 0 2 -40 30 -89 29 -49 50 -100 47
-115 -3 -14 8 -62 24 -106 41 -112 42 -952 1 -1040 -15 -33 -30 -78 -33 -100
-3 -22 -24 -80 -46 -129 -22 -49 -36 -96 -30 -105 5 -9 -5 -16 -22 -16 -17 0
-31 -17 -31 -38 0 -48 -127 -275 -191 -343 -27 -28 -49 -61 -49 -73 0 -12 -18
-26 -41 -32 -22 -6 -38 -19 -35 -30 3 -10 -19 -42 -49 -71 -30 -28 -55 -61
-55 -72 0 -12 -8 -21 -18 -21 -10 0 -62 -40 -115 -90 -53 -49 -108 -90 -121
-90 -13 0 -47 -23 -76 -52 -28 -28 -64 -47 -80 -41 -19 7 -24 1 -17 -19 7 -16
4 -27 -6 -24 -22 6 -187 -67 -187 -84 0 -6 -34 -14 -75 -17 -41 -2 -84 -16
-95 -30 -33 -42 -89 -62 -255 -91 -64 -11 -124 -25 -135 -32 -11 -7 -20 -1
-20 14 -1 18 -5 19 -15 3 -52 -81 -885 -10 -885 75 0 20 -57 15 -94 -8 -15
-10 -35 1 -50 25 -14 23 -41 41 -60 41 -18 0 -38 8 -44 17 -6 9 -54 33 -106
53 -120 45 -230 127 -213 157 8 13 6 17 -2 9 -28 -25 -187 79 -286 187 -52 57
-124 132 -160 165 -36 34 -65 72 -65 84 0 12 -17 37 -37 55 -20 19 -62 85 -94
148 -32 63 -62 120 -69 125 -6 6 -28 51 -48 100 -40 100 -47 114 -96 183 -19
26 -40 84 -47 128 -7 43 -26 138 -42 209 -51 223 -23 744 46 856 16 25 23 54
17 65 -7 10 -2 19 11 19 18 0 18 7 1 27 -17 21 -13 39 18 78 22 28 40 64 40
80 0 16 22 62 49 102 28 40 44 73 38 73 -7 0 -2 12 10 27 13 15 18 31 12 37
-6 6 12 32 40 58 28 27 50 68 51 91 0 24 7 47 15 50 8 4 45 45 82 92 41 53 83
85 110 85 33 1 37 5 14 19 -23 15 -24 23 -2 49 14 17 32 27 40 22 8 -5 27 13
41 40 14 26 56 63 93 80 38 18 63 41 56 52 -7 10 -5 17 5 15 31 -9 106 26 106
50 0 35 73 74 114 61 26 -8 29 -6 10 7 -55 40 61 129 141 109 8 -2 15 5 15 16
0 11 41 30 90 42 50 13 96 31 102 40 5 10 41 18 79 18 38 0 69 9 69 20 0 11
16 20 36 20 20 0 45 8 55 18 44 42 868 57 989 18z"/>
<path d="M3425 3625 c-93 -51 -479 -389 -571 -500 -20 -25 -44 -45 -53 -45
-10 0 -92 -71 -183 -159 -92 -87 -174 -154 -182 -148 -9 5 -16 -1 -16 -14 0
-13 -36 -60 -80 -104 -44 -44 -80 -73 -80 -65 0 9 -19 -8 -42 -37 -23 -30 -52
-47 -65 -40 -12 7 -16 6 -8 -3 16 -18 -59 -110 -90 -110 -30 0 -115 -74 -101
-87 7 -7 -6 -13 -28 -13 -23 0 -52 13 -65 29 -14 17 -32 28 -41 25 -27 -7
-200 167 -200 201 0 17 -5 26 -12 20 -6 -6 -44 26 -85 72 -40 46 -78 86 -85
89 -6 3 -45 36 -86 73 -42 39 -87 64 -103 58 -16 -6 -29 -2 -29 9 0 85 -233
-28 -395 -192 -47 -47 -85 -79 -85 -72 0 7 -36 -40 -80 -104 -44 -65 -80 -131
-80 -146 0 -43 116 -215 182 -271 32 -26 58 -58 58 -70 0 -11 10 -21 21 -21
12 0 16 -9 9 -20 -7 -11 1 -20 18 -20 17 0 40 -17 51 -38 11 -21 65 -85 120
-143 55 -58 96 -111 91 -119 -5 -8 14 -25 42 -37 28 -13 45 -32 38 -43 -7 -11
1 -20 16 -20 16 0 61 -38 100 -85 139 -165 286 -315 310 -315 13 0 24 -8 24
-18 0 -93 313 -139 360 -53 14 27 34 45 43 39 9 -6 17 0 17 12 0 28 102 119
135 119 14 1 25 10 25 21 0 12 22 30 50 40 27 10 74 55 105 99 30 44 65 80 78
80 13 1 42 33 64 71 30 51 56 70 92 70 28 0 49 8 46 17 -3 10 29 50 70 89 41
39 75 81 75 93 0 11 7 21 15 21 8 0 47 27 85 60 39 33 62 60 53 60 -41 0 33
56 106 80 44 14 75 33 70 41 -5 9 40 65 101 124 60 60 110 104 110 99 0 -6 16
8 35 30 69 79 281 243 296 230 8 -8 9 -3 1 11 -9 16 4 32 38 45 31 12 64 48
81 90 16 38 43 70 60 70 17 0 36 14 42 31 7 19 25 26 44 19 17 -7 26 -6 18 1
-7 8 9 58 37 113 58 114 48 174 -49 309 -31 43 -61 93 -69 112 -7 20 -29 42
-49 49 -19 7 -47 30 -61 50 -15 20 -43 36 -64 36 -21 0 -49 19 -61 42 -12 23
-53 54 -90 70 -82 34 -67 35 -144 -7z m309 -334 l200 -220 -111 -100 c-62 -56
-337 -308 -612 -560 -276 -252 -693 -635 -928 -850 -234 -215 -433 -391 -441
-391 -8 0 -58 50 -111 110 -53 61 -156 173 -229 251 -73 77 -217 234 -322 348
-104 114 -251 271 -325 349 l-135 142 68 60 c38 33 140 125 227 204 l158 144
356 -389 356 -389 43 45 c23 25 213 202 422 395 779 716 1129 1042 1141 1062
20 32 32 21 243 -211z"/>
</g>
</svg>
