<?xml version="1.0" standalone="no"?>
<!DOCTYPE svg PUBLIC "-//W3C//DTD SVG 20010904//EN"
 "http://www.w3.org/TR/2001/REC-SVG-20010904/DTD/svg10.dtd">
<svg version="1.0" xmlns="http://www.w3.org/2000/svg"
 width="954.000000pt" height="930.000000pt" viewBox="0 0 954.000000 930.000000"
 preserveAspectRatio="xMidYMid meet">
<metadata>
Created by potrace 1.10, written by Peter Selinger 2001-2011
</metadata>
<g transform="translate(0.000000,930.000000) scale(0.100000,-0.100000)"
fill="#000000" stroke="none">
<path d="M1180 7644 c-17 -30 -10 -43 65 -128 41 -46 55 -56 82 -56 33 0 53
21 53 54 0 8 -27 47 -61 85 -52 61 -65 71 -93 71 -25 0 -36 -6 -46 -26z"/>
<path d="M1542 7274 c-27 -19 -29 -63 -4 -85 9 -9 39 -39 66 -68 52 -55 81
-64 109 -33 28 31 19 54 -46 124 -69 74 -92 85 -125 62z"/>
<path d="M2005 7190 c-16 -18 -15 -50 2 -50 4 0 28 16 52 35 l44 35 -40 0
c-27 0 -46 -6 -58 -20z"/>
<path d="M2604 6936 c-9 -23 0 -69 14 -74 8 -2 12 9 12 37 0 41 -16 64 -26 37z"/>
<path d="M7282 6888 c-95 -140 -141 -203 -152 -206 -6 -2 -19 3 -28 11 -25 21
-62 28 -86 15 -48 -25 -47 -49 6 -97 l41 -39 -56 -78 c-143 -197 -175 -243
-211 -296 -29 -44 -44 -58 -62 -58 -13 0 -24 4 -24 9 0 12 -27 22 -44 15 -8
-3 -16 -14 -19 -25 -4 -15 -12 -20 -28 -17 -17 2 -28 18 -48 70 -21 55 -30 68
-48 68 -12 0 -23 6 -26 13 -2 6 -8 9 -12 5 -4 -4 -3 -13 3 -20 5 -7 12 -42 14
-78 l3 -65 -31 -3 c-40 -4 -46 17 -33 113 5 39 9 77 10 85 0 8 5 30 11 49 9
29 8 36 -8 48 -24 17 -30 17 -54 -7 -13 -13 -20 -33 -20 -60 0 -22 -7 -80 -15
-130 -12 -66 -13 -95 -5 -110 11 -21 44 -27 55 -9 7 11 45 -16 45 -32 0 -15
-48 -21 -70 -9 -26 14 -34 8 -35 -28 0 -21 -5 -28 -26 -30 -14 -2 -36 5 -48
16 -22 17 -23 23 -16 80 4 35 13 68 20 76 9 8 11 28 8 58 -5 41 8 150 23 201
3 11 15 17 33 17 57 0 68 44 17 65 -39 17 -49 36 -36 71 6 14 13 56 16 93 8
79 17 72 -126 91 -47 6 -116 15 -154 21 -44 6 -73 6 -79 0 -12 -12 -26 -84
-27 -141 0 -58 -7 -68 -50 -72 -31 -3 -35 -6 -35 -33 0 -23 5 -30 25 -35 24
-6 25 -9 24 -75 -2 -69 -8 -121 -40 -346 l-17 -115 -66 -18 c-36 -10 -84 -25
-106 -33 -22 -8 -56 -21 -75 -28 -146 -54 -286 -121 -293 -140 -5 -10 2 -16
21 -20 15 -3 47 -10 72 -16 25 -6 61 -15 80 -19 44 -9 198 -77 250 -110 8 -6
51 -31 95 -56 111 -65 182 -121 261 -209 37 -41 74 -75 81 -75 23 0 14 -25
-22 -64 -24 -27 -40 -36 -53 -32 -42 14 -77 -26 -45 -49 17 -12 15 -16 -17
-48 -19 -19 -80 -83 -135 -143 -55 -60 -125 -135 -155 -167 l-55 -58 -75 27
c-41 15 -81 35 -89 46 -16 22 -164 139 -231 184 -40 26 -77 44 -158 75 -122
47 -345 63 -465 32 -46 -12 -72 -14 -83 -8 -14 9 -40 67 -116 255 -17 41 -36
89 -43 105 -49 113 -76 185 -81 217 -6 31 -3 38 20 53 14 9 40 21 58 26 154
40 202 56 206 66 2 7 -5 16 -15 19 -10 3 -45 18 -78 33 -79 37 -112 52 -155
68 -127 50 -352 113 -401 113 -53 0 -128 21 -151 44 -13 12 -54 57 -93 101
-38 43 -77 86 -85 94 -44 45 -140 160 -140 167 0 5 -17 17 -36 27 -33 16 -38
16 -60 2 -31 -20 -31 -54 1 -101 29 -43 32 -64 9 -64 -9 0 -32 -9 -50 -20
l-33 -21 -11 21 c-6 11 -17 20 -24 20 -15 0 -56 42 -56 58 0 7 -9 17 -20 24
-11 7 -20 18 -20 25 0 30 -21 20 -45 -22 -15 -25 -31 -45 -37 -45 -16 0 -78
67 -78 84 0 9 -6 16 -14 16 -14 0 -31 15 -114 104 -47 50 -78 58 -105 28 -24
-27 -21 -52 13 -96 34 -44 37 -67 14 -86 -12 -11 -18 -10 -33 6 -22 23 -61
115 -61 143 0 19 -2 20 -20 9 -16 -11 -22 -9 -34 7 -20 28 -29 13 -18 -29 11
-39 1 -55 -33 -55 -11 1 -36 -2 -57 -6 -34 -7 -40 -4 -102 54 -36 33 -72 61
-80 61 -8 0 -28 -11 -44 -25 -17 -14 -36 -25 -44 -25 -16 0 -68 51 -68 67 0
18 -67 63 -93 63 -33 0 -61 -33 -53 -62 3 -13 31 -49 61 -81 49 -51 71 -97 46
-97 -17 0 -42 -51 -36 -71 4 -11 24 -39 45 -62 48 -51 55 -76 35 -123 -12 -30
-18 -34 -37 -28 -33 10 -43 10 -46 -1 -2 -5 5 -12 15 -15 38 -10 65 -37 61
-61 -5 -38 -44 -34 -131 13 -44 23 -20 -14 33 -52 93 -65 144 -115 137 -133
-10 -26 -22 -21 -77 28 -54 48 -65 52 -92 31 -30 -23 -22 -66 22 -116 42 -47
48 -65 28 -73 -9 -4 -5 -12 12 -26 22 -17 25 -28 25 -80 -1 -56 1 -61 21 -61
13 0 24 -8 27 -20 3 -12 14 -20 25 -20 12 0 24 -5 27 -11 4 -5 18 -14 31 -19
32 -13 32 -47 -1 -62 -23 -10 -24 -13 -9 -29 15 -16 14 -19 -12 -32 -17 -9
-23 -17 -15 -21 6 -4 11 -16 11 -27 0 -26 -39 -25 -74 2 l-26 21 -63 -22 c-34
-11 -73 -30 -86 -41 -24 -20 -24 -21 -8 -49 9 -15 17 -35 17 -43 0 -16 61 -30
135 -31 39 -1 40 -2 40 -39 0 -37 11 -47 32 -26 18 18 33 1 33 -38 0 -32 2
-35 23 -29 18 4 29 -1 45 -24 12 -16 22 -34 22 -40 0 -13 -86 -13 -111 1 -24
12 -69 -11 -69 -36 0 -21 44 -46 102 -60 61 -13 77 -32 60 -69 -9 -19 -19 -26
-41 -26 -16 0 -32 4 -35 9 -3 5 -27 12 -53 16 -45 6 -48 5 -74 -27 -24 -29
-33 -33 -76 -33 -47 0 -48 -1 -57 -37 -10 -40 -20 -45 -59 -27 -18 8 -30 8
-46 0 -36 -20 -22 -81 19 -81 20 0 55 -37 64 -66 9 -31 36 -52 71 -56 29 -3
30 -6 35 -58 5 -52 6 -55 38 -61 42 -9 46 -13 32 -38 -16 -31 -45 -26 -119 24
-71 48 -91 54 -91 30 0 -8 4 -15 8 -15 10 0 32 -45 32 -65 0 -22 -48 3 -56 28
-4 11 -17 32 -30 46 -13 14 -27 33 -29 42 -3 9 -20 24 -38 32 -44 22 -58 5
-23 -27 14 -14 35 -45 45 -69 11 -25 33 -54 50 -66 35 -25 44 -67 13 -59 -15
4 -18 1 -14 -17 5 -29 -33 -81 -64 -89 -20 -5 -23 -11 -18 -30 4 -19 1 -26
-15 -31 -12 -3 -21 -10 -21 -15 0 -9 55 -36 84 -42 31 -5 44 -35 24 -54 -13
-13 -14 -23 -7 -42 7 -19 6 -29 -5 -41 -14 -13 -17 -13 -34 2 -10 9 -22 14
-25 10 -13 -12 -7 -44 8 -49 28 -11 37 -41 25 -85 -15 -53 -7 -73 33 -84 45
-14 47 -45 5 -77 -69 -53 -94 -60 -174 -53 l-74 7 -40 -43 c-22 -24 -40 -51
-41 -59 0 -8 -2 -22 -5 -30 -17 -64 -16 -67 21 -109 46 -51 129 -80 173 -61
41 17 88 88 96 145 8 54 54 115 87 115 26 0 47 -40 41 -79 l-5 -33 27 17 c14
10 26 21 26 26 0 5 14 9 30 9 28 0 30 -3 30 -34 0 -19 -4 -38 -10 -41 -5 -3
-10 -15 -10 -26 0 -18 6 -20 57 -17 l58 3 -3 -45 c-2 -31 -12 -59 -33 -89 -17
-24 -28 -50 -25 -57 10 -26 36 -14 56 26 24 48 45 59 67 37 14 -14 15 -23 4
-70 -10 -47 -8 -87 6 -87 2 0 17 7 34 15 24 13 30 13 35 2 7 -19 -3 -111 -13
-114 -4 -2 -18 -9 -30 -16 -12 -6 -43 -23 -70 -37 -26 -13 -65 -37 -86 -53
-32 -25 -38 -35 -35 -60 4 -42 24 -45 41 -5 17 41 24 46 121 97 67 35 84 40
120 35 22 -4 51 -13 64 -21 20 -12 30 -11 85 6 69 21 115 41 167 72 19 12 53
30 75 41 48 25 54 28 128 72 31 20 64 33 72 30 8 -4 17 1 21 10 8 21 120 88
140 84 9 -2 23 -12 31 -24 12 -20 10 -23 -29 -49 -24 -16 -86 -60 -138 -97
-123 -88 -361 -260 -441 -318 -34 -25 -72 -50 -85 -55 -13 -6 -31 -19 -41 -28
-27 -27 -204 -157 -235 -173 -32 -17 -35 -34 -12 -69 20 -30 47 -32 81 -5 23
18 29 19 47 7 12 -8 25 -26 30 -40 9 -24 5 -31 -27 -59 l-37 -33 21 -32 c25
-40 42 -41 85 -8 l32 25 26 -31 c34 -41 33 -56 -9 -80 -39 -23 -43 -43 -16
-77 25 -29 44 -28 94 8 23 17 88 63 143 103 166 117 360 257 463 332 53 39
121 88 151 108 30 21 98 69 150 107 95 70 120 82 120 56 0 -12 -20 -31 -117
-111 -40 -33 -40 -43 -3 -75 17 -13 30 -32 30 -41 0 -9 -42 -52 -92 -95 -192
-164 -208 -187 -208 -299 0 -61 -1 -64 -37 -91 -21 -15 -49 -38 -63 -51 -14
-12 -36 -33 -51 -45 -29 -27 -41 -52 -33 -73 10 -25 32 -17 39 15 5 21 24 44
58 72 29 22 54 44 55 49 2 5 10 9 17 9 7 0 15 7 19 15 4 12 24 15 87 15 75 0
85 2 137 35 32 19 71 48 88 63 18 15 62 52 99 82 38 30 104 86 148 123 44 38
90 75 103 83 12 9 25 21 28 29 3 8 -33 53 -91 112 -106 108 -133 145 -133 184
0 22 -4 26 -23 22 -26 -5 -53 19 -42 38 5 7 21 9 40 6 37 -6 69 11 63 34 -1 8
14 30 35 48 36 33 38 33 57 16 12 -10 20 -13 20 -7 0 21 39 52 66 52 25 0 26
2 19 37 -13 69 -17 69 -110 -2 -39 -30 -78 -55 -86 -55 -8 0 -30 -13 -49 -28
-59 -48 -77 -55 -102 -38 -25 17 -78 108 -78 133 0 12 7 14 34 9 72 -14 69 47
-4 84 -22 11 -40 25 -40 30 0 6 -7 10 -15 10 -20 0 -19 -30 2 -45 10 -8 14
-19 9 -31 -6 -16 -9 -15 -31 11 -13 17 -24 34 -25 40 0 5 -13 37 -29 70 -27
58 -75 172 -101 245 -7 19 -16 58 -20 87 -5 28 -11 57 -14 62 -14 21 -44 159
-57 256 -30 219 0 618 56 750 7 16 23 55 35 85 57 143 170 336 270 461 42 52
160 171 215 217 106 87 390 252 435 252 16 0 34 -31 65 -110 10 -25 23 -58 30
-75 8 -16 28 -66 45 -110 18 -44 45 -111 61 -149 33 -78 36 -108 13 -127 -10
-8 -14 -22 -10 -40 5 -25 -4 -36 -71 -96 -42 -37 -90 -80 -106 -94 -27 -25
-39 -42 -67 -94 -6 -11 -19 -33 -30 -50 -11 -16 -23 -37 -27 -45 -3 -8 -18
-30 -31 -48 -20 -27 -31 -32 -56 -30 -22 2 -31 -1 -31 -12 0 -10 8 -14 28 -12
33 3 35 -17 10 -93 -21 -65 -23 -425 -3 -495 7 -25 12 -63 11 -84 0 -26 5 -43
16 -51 28 -21 52 -119 44 -181 -7 -50 -6 -56 13 -66 12 -6 27 -18 34 -27 15
-20 104 -150 117 -173 45 -77 64 -119 59 -132 -4 -11 3 -19 21 -26 35 -13 56
-35 77 -82 9 -21 21 -38 27 -38 9 0 243 -170 268 -196 16 -16 80 -38 168 -57
118 -27 141 -28 251 -17 122 13 139 7 113 -38 -12 -22 -22 -27 -54 -27 -32 0
-42 -5 -52 -25 -7 -14 -13 -37 -13 -52 0 -17 -11 -35 -30 -51 -35 -30 -37 -37
-10 -60 21 -18 60 -23 60 -9 0 5 9 19 20 32 22 25 26 45 10 55 -19 12 -10 41
21 64 24 18 45 23 97 24 l67 2 22 -45 c29 -60 28 -69 -7 -81 -28 -10 -47 -40
-36 -57 3 -5 30 -7 60 -4 52 4 55 3 61 -21 11 -43 2 -62 -29 -65 -16 -2 -37
-13 -47 -25 -16 -21 -16 -22 7 -44 29 -26 31 -54 6 -76 -26 -23 -42 -21 -42 6
0 12 -7 30 -14 39 -9 13 -11 32 -6 65 9 54 7 58 -15 50 -10 -5 -15 -20 -15
-50 0 -41 -2 -45 -30 -50 -35 -8 -42 -42 -10 -50 11 -3 27 -22 36 -44 9 -21
29 -50 45 -65 50 -47 32 -78 -55 -89 -28 -4 -74 -10 -103 -14 -50 -7 -52 -7
-58 18 -7 25 -9 26 -81 24 -70 -2 -74 -3 -74 -25 0 -38 -39 -46 -160 -33 -105
11 -194 29 -260 52 -174 61 -241 91 -258 118 -9 14 -17 27 -18 29 -1 2 -11 -2
-23 -9 -18 -12 -26 -9 -66 19 -25 18 -50 32 -55 32 -16 0 -22 20 -10 35 6 8 7
16 2 19 -6 3 -12 -1 -16 -9 -7 -18 -32 -20 -43 -2 -4 6 -24 20 -44 30 -20 11
-42 30 -48 43 -11 24 -51 34 -51 13 0 -6 -53 -65 -117 -131 -65 -65 -119 -125
-121 -132 -2 -7 6 -16 18 -19 11 -3 20 -12 20 -21 0 -9 8 -16 19 -16 10 0 21
-9 24 -20 3 -11 10 -20 15 -20 6 0 64 56 129 125 109 116 143 140 158 115 5
-8 151 -128 314 -258 145 -115 498 -377 548 -406 13 -7 42 5 65 27 7 7 81 65
163 127 148 112 269 208 352 277 67 56 77 62 95 63 10 0 22 -9 28 -20 6 -11
16 -20 22 -20 19 0 198 139 198 154 0 21 -25 26 -55 10 -39 -20 -65 -18 -65 5
0 10 -9 21 -20 24 -11 3 -20 14 -20 24 0 10 -7 29 -16 42 -15 20 -21 57 -27
146 -2 29 0 30 43 33 41 3 59 14 60 35 0 4 -20 19 -44 34 -59 36 -79 72 -80
149 -1 47 3 67 17 82 24 26 20 78 -5 75 -10 -2 -25 -4 -34 -5 -9 -2 -19 3 -21
9 -7 19 47 63 77 63 21 0 31 8 48 43 11 23 43 69 69 102 27 33 59 80 72 105
13 25 30 57 37 72 8 14 14 38 14 52 0 20 9 32 37 48 35 21 35 22 15 31 -29 13
-28 26 9 77 39 54 28 69 -32 43 -24 -11 -50 -27 -58 -36 -7 -10 -19 -17 -26
-17 -7 0 -41 -15 -77 -32 -87 -45 -119 -58 -138 -58 -8 0 -24 -6 -35 -13 -30
-20 -179 -77 -201 -77 -11 0 -29 -7 -40 -15 -33 -25 -48 -17 -67 33 -11 26
-25 61 -32 77 -7 17 -28 66 -45 110 -17 44 -38 93 -46 108 -8 16 -14 39 -14
52 0 12 -7 28 -15 35 -8 7 -15 18 -15 25 0 8 -7 27 -15 44 -8 17 -22 45 -30
61 -16 34 -11 60 13 60 8 0 39 16 68 35 29 19 57 35 63 35 6 0 27 7 48 16 128
56 246 104 254 104 5 0 38 14 74 31 62 29 95 32 95 10 0 -6 -11 -13 -25 -17
-14 -3 -25 -13 -25 -21 0 -11 6 -14 23 -9 12 3 29 6 38 6 9 0 21 11 29 24 7
14 32 32 57 41 26 10 49 27 55 40 7 15 33 32 77 50 36 15 116 47 176 72 61 25
144 58 185 75 76 30 105 42 173 72 45 19 69 20 85 4 22 -22 13 -48 -23 -69
-46 -28 -45 -43 3 -35 83 15 155 2 160 -29 2 -11 9 -36 16 -55 34 -88 65 -304
66 -445 1 -263 -78 -652 -157 -770 -32 -48 -21 -59 286 -293 31 -24 65 -51 76
-60 11 -10 72 -57 135 -106 63 -49 117 -92 120 -96 15 -19 105 -80 119 -80 17
0 31 15 121 132 l60 77 -72 58 c-40 32 -75 60 -78 64 -3 3 -43 34 -90 69 -47
35 -87 67 -90 70 -3 4 -57 47 -120 96 -63 48 -123 95 -132 104 -9 8 -50 40
-92 70 -79 57 -96 81 -76 105 19 23 43 18 91 -18 24 -18 66 -48 94 -66 l49
-33 36 41 c19 23 39 41 44 41 5 0 32 -17 60 -38 61 -46 325 -230 365 -255 l28
-17 27 38 c14 21 26 43 26 49 0 6 -19 23 -42 39 -24 15 -80 55 -124 87 l-82
59 45 67 c25 36 52 73 59 82 20 22 10 40 -39 70 -46 29 -266 181 -313 216 -22
16 -26 24 -17 33 8 9 30 2 90 -30 43 -24 82 -47 87 -51 23 -21 45 -7 70 44 15
28 32 59 38 69 17 24 0 40 -98 88 -85 43 -92 51 -74 92 44 100 56 109 124 92
32 -8 56 13 56 49 0 10 8 35 17 54 20 43 10 64 -36 76 -26 6 -31 12 -26 25 4
9 11 31 15 47 5 17 13 44 19 60 36 108 71 315 71 425 -1 41 -7 111 -15 155
-13 74 -13 81 3 97 24 23 281 130 298 124 8 -3 14 -10 14 -16 0 -5 7 -10 15
-10 8 0 15 8 15 18 0 28 27 59 58 65 15 3 39 14 51 24 l23 19 -43 102 c-39 92
-46 103 -76 113 -18 6 -38 20 -44 30 -15 30 -40 6 -33 -31 5 -22 1 -31 -14
-39 -17 -9 -23 -7 -36 11 -12 17 -18 19 -30 9 -7 -6 -12 -21 -9 -31 6 -21 7
-20 -177 -101 -25 -11 -53 -25 -62 -30 -43 -22 -68 2 -68 64 0 28 -8 42 -40
71 -22 20 -40 40 -40 45 0 5 -13 23 -30 39 -53 54 -29 84 31 41 21 -14 28 -26
24 -39 -4 -13 1 -19 19 -24 28 -7 84 2 92 15 8 14 40 10 54 -6 8 -10 26 -14
48 -13 19 2 37 -2 39 -8 4 -12 -67 -54 -92 -54 -17 0 -39 -36 -30 -50 9 -14
29 -12 62 5 15 7 49 23 75 35 72 33 77 44 37 86 l-33 34 22 16 c41 29 25 66
-35 78 -38 9 -52 -8 -29 -33 30 -32 19 -39 -66 -43 -65 -3 -91 0 -121 15 -42
20 -44 38 -6 48 13 4 17 7 8 8 -8 1 -28 15 -45 32 -16 17 -44 39 -61 51 -18
11 -33 26 -33 33 0 18 49 75 65 75 16 0 45 43 45 68 0 26 59 112 76 112 8 0
14 8 14 19 0 10 27 56 61 102 33 46 74 105 91 132 31 49 50 57 77 33 30 -27
67 -30 90 -7 30 30 26 49 -19 90 l-39 36 39 55 c22 30 60 85 84 122 25 36 50
69 56 73 5 3 10 14 10 25 0 18 -36 46 -260 205 -58 41 -124 88 -147 105 -23
16 -48 30 -55 30 -8 0 -33 -28 -56 -62z m126 -128 c23 -17 42 -33 42 -36 0
-11 -61 -94 -69 -94 -7 0 -75 43 -89 55 -13 11 48 105 67 105 5 0 27 -14 49
-30z m-1300 -104 c3 -33 1 -36 -22 -36 -55 0 -74 33 -40 71 26 28 58 10 62
-35z m160 -6 c2 -14 -3 -33 -10 -43 -11 -15 -18 -16 -41 -8 -27 10 -34 32 -21
66 5 11 16 15 38 13 25 -2 32 -8 34 -28z m1338 -26 c40 -31 43 -53 12 -94 -26
-35 -45 -37 -92 -9 -40 23 -46 48 -18 78 9 11 23 27 30 35 18 22 28 20 68 -10z
m-235 -113 c134 -91 155 -120 99 -140 -16 -5 -30 -15 -30 -20 0 -25 -50 -7
-121 42 -137 94 -159 112 -159 128 0 8 16 32 35 53 l35 38 32 -24 c18 -14 67
-48 109 -77z m-1184 28 c67 -12 78 -23 59 -60 -8 -17 -19 -23 -37 -22 -13 2
-51 5 -84 8 -102 10 -105 11 -105 49 0 18 3 36 8 40 7 8 49 4 159 -15z m-2681
-305 c12 -3 26 -16 32 -29 10 -22 7 -27 -29 -56 -22 -17 -42 -29 -44 -27 -3 2
-1 19 4 36 11 35 9 37 -18 20 -22 -13 -54 -4 -49 15 3 6 20 20 39 29 40 20 38
19 65 12z m2564 -149 c119 -13 120 -13 120 -44 0 -18 -7 -32 -17 -36 -31 -12
-207 -23 -219 -13 -8 6 -9 21 -2 50 12 55 16 61 42 54 11 -3 46 -8 76 -11z
m-3650 -590 c0 -8 -7 -15 -15 -15 -8 0 -15 7 -15 15 0 8 7 15 15 15 8 0 15 -7
15 -15z m5005 -367 c32 -67 32 -86 -2 -94 -28 -8 -53 14 -53 47 0 10 -5 29
-11 43 -15 31 -5 56 21 56 14 0 27 -15 45 -52z m-2970 -136 c0 -18 -20 -15
-23 4 -3 10 1 15 10 12 7 -3 13 -10 13 -16z m1102 -2213 c16 -16 5 -39 -17
-39 -23 0 -34 16 -26 35 6 18 28 19 43 4z m39 -156 c3 -10 11 -28 17 -40 6
-13 7 -26 3 -30 -12 -12 -46 36 -46 63 0 28 18 32 26 7z m-70 -258 c11 -17 15
-37 11 -60 -5 -28 -1 -41 19 -62 31 -34 28 -50 -17 -76 l-36 -21 -48 23 -48
22 39 40 c21 21 44 39 51 39 17 0 16 11 -2 46 -32 61 -5 104 31 49z"/>
<path d="M1857 6913 c-4 -3 -7 -21 -7 -38 0 -25 13 -46 61 -99 69 -75 105 -86
134 -42 21 31 11 50 -63 129 -45 46 -61 57 -87 57 -17 0 -35 -3 -38 -7z"/>
<path d="M5872 6868 c-7 -7 -12 -18 -12 -25 0 -18 37 -16 44 2 3 8 12 15 20
15 8 0 18 5 21 10 9 14 -58 13 -73 -2z"/>
<path d="M7160 6860 c0 -11 5 -20 10 -20 6 0 10 9 10 20 0 11 -4 20 -10 20 -5
0 -10 -9 -10 -20z"/>
<path d="M2228 6863 c-10 -2 -18 -9 -18 -15 0 -13 30 -37 46 -38 15 0 25 26
18 45 -6 15 -14 17 -46 8z"/>
<path d="M2280 6792 c0 -10 22 -32 32 -32 5 0 3 9 -4 20 -13 20 -28 27 -28 12z"/>
<path d="M6828 6651 c-12 -17 -51 -69 -86 -118 -34 -48 -83 -116 -107 -151
-51 -70 -60 -123 -26 -142 36 -19 59 -11 82 28 13 20 56 82 96 137 122 168
130 180 137 203 10 31 -17 72 -48 72 -15 0 -33 -12 -48 -29z"/>
<path d="M3753 6588 c-34 -35 -78 -78 -97 -97 -43 -41 -37 -63 7 -24 62 56
167 164 167 173 0 20 -17 8 -77 -52z"/>
<path d="M6400 6635 c-10 -12 -9 -20 5 -41 15 -24 19 -25 27 -10 12 21 7 58
-8 63 -6 2 -17 -3 -24 -12z"/>
<path d="M1785 6580 c-8 -13 -11 -10 43 -44 44 -27 76 -29 66 -3 -2 7 -24 22
-47 33 -23 10 -45 20 -49 22 -3 2 -9 -2 -13 -8z"/>
<path d="M5790 6478 c-5 -13 -14 -58 -19 -101 -6 -43 -17 -90 -24 -104 -11
-21 -11 -32 -1 -62 16 -47 54 -55 79 -17 9 14 14 30 10 36 -3 6 -1 62 5 125
10 91 10 118 0 130 -18 22 -39 18 -50 -7z"/>
<path d="M4543 6365 c-3 -9 -3 -18 0 -21 7 -8 47 15 47 26 0 16 -40 11 -47 -5z"/>
<path d="M1260 6340 c-12 -7 -12 -12 -2 -22 9 -9 17 -10 30 -2 9 6 16 15 15
20 -3 13 -26 15 -43 4z"/>
<path d="M7554 6034 c-38 -53 -95 -132 -127 -175 -83 -115 -87 -169 -12 -169
29 0 38 7 71 58 21 31 64 93 96 137 32 44 71 99 88 122 35 49 40 97 11 113
-42 22 -57 12 -127 -86z"/>
<path d="M4640 6105 c-11 -13 -9 -15 15 -15 16 0 25 5 23 12 -7 19 -24 20 -38
3z"/>
<path d="M5214 6109 c-3 -6 -2 -15 2 -19 12 -12 38 5 30 19 -9 14 -23 14 -32
0z"/>
<path d="M5360 5596 c0 -9 7 -16 16 -16 17 0 14 22 -4 28 -7 2 -12 -3 -12 -12z"/>
<path d="M7340 5591 c0 -9 24 -21 41 -21 5 0 9 7 9 15 0 9 -9 15 -25 15 -14 0
-25 -4 -25 -9z"/>
<path d="M7680 5037 c-119 -53 -150 -70 -150 -83 0 -19 50 -18 87 1 15 8 47
22 70 32 32 13 43 24 43 41 0 24 -12 27 -50 9z"/>
<path d="M1235 4836 c-11 -8 -16 -22 -13 -41 3 -24 10 -30 52 -42 46 -14 51
-13 63 4 24 32 12 56 -38 75 -38 14 -50 14 -64 4z"/>
<path d="M1497 4773 c-4 -3 -7 -20 -7 -38 0 -27 5 -32 45 -47 50 -19 71 -16
78 11 9 34 -10 58 -57 70 -53 13 -51 13 -59 4z"/>
<path d="M1746 4707 c-33 -24 -17 -59 38 -81 l48 -21 19 24 c17 20 18 27 7 43
-10 15 -55 38 -94 48 0 0 -8 -6 -18 -13z"/>
<path d="M1380 4662 c0 -12 227 -172 245 -172 3 0 13 -7 22 -15 8 -8 19 -12
24 -9 6 3 -7 21 -28 40 -41 36 -194 134 -211 134 -5 0 -15 7 -22 15 -13 16
-30 20 -30 7z"/>
<path d="M3470 4609 c0 -24 23 -21 28 4 2 10 -3 17 -12 17 -10 0 -16 -9 -16
-21z"/>
<path d="M5937 4213 c-4 -3 -7 -15 -7 -25 0 -14 8 -18 35 -18 35 0 40 5 29 34
-6 16 -45 22 -57 9z"/>
<path d="M6160 4185 c-10 -12 -9 -16 3 -21 20 -7 37 3 37 22 0 18 -24 18 -40
-1z"/>
<path d="M876 4121 c-37 -6 -38 -7 -19 -23 16 -15 25 -16 54 -6 19 6 41 13 49
16 12 3 11 6 -5 12 -22 10 -25 10 -79 1z"/>
<path d="M5931 4050 c-8 -24 -7 -30 4 -30 17 0 38 36 30 50 -11 18 -23 11 -34
-20z"/>
<path d="M5255 3936 c-31 -22 -12 -48 32 -44 33 3 38 7 41 31 3 24 0 27 -25
27 -16 0 -38 -6 -48 -14z"/>
<path d="M5474 3918 c-4 -6 7 -25 28 -43 42 -39 125 -57 140 -31 5 9 20 28 34
43 42 46 37 47 -118 28 -20 -3 -40 -1 -43 5 -8 14 -32 13 -41 -2z"/>
<path d="M5753 3923 c-32 -12 4 -38 38 -28 27 9 24 35 -3 34 -13 0 -29 -3 -35
-6z"/>
<path d="M6017 3895 c6 -17 25 -15 31 3 2 7 -5 12 -17 12 -14 0 -19 -5 -14
-15z"/>
<path d="M6129 3841 c-19 -16 -22 -22 -11 -32 10 -11 16 -9 34 9 31 31 11 51
-23 23z"/>
<path d="M5967 3833 c-11 -10 -8 -83 3 -83 18 0 30 38 20 64 -10 28 -13 30
-23 19z"/>
<path d="M7813 3793 c-29 -13 -53 -28 -53 -33 0 -4 12 -27 27 -50 25 -38 30
-41 63 -35 21 4 52 0 79 -10 46 -16 181 -21 181 -7 0 20 -96 82 -126 82 -25 0
-104 42 -104 55 0 23 -13 23 -67 -2z"/>
<path d="M5402 3753 c2 -10 12 -18 23 -18 11 0 21 8 23 18 3 13 -3 17 -23 17
-20 0 -26 -4 -23 -17z"/>
<path d="M5685 3760 c-8 -14 3 -30 21 -30 8 0 14 9 14 20 0 21 -24 28 -35 10z"/>
<path d="M5940 3695 c0 -18 24 -30 40 -20 8 5 8 11 -1 21 -15 19 -39 18 -39
-1z"/>
<path d="M3505 3590 c-8 -13 4 -32 16 -25 12 8 12 35 0 35 -6 0 -13 -4 -16
-10z"/>
<path d="M5296 3557 c-16 -11 -17 -17 -7 -36 15 -27 35 -23 39 8 5 32 -10 44
-32 28z"/>
<path d="M5454 3557 c-6 -16 28 -57 47 -57 18 0 5 42 -18 57 -20 14 -23 14
-29 0z"/>
<path d="M4040 3515 c0 -8 4 -15 9 -15 5 0 14 7 21 15 10 13 9 15 -9 15 -12 0
-21 -6 -21 -15z"/>
<path d="M3740 3509 c0 -5 -16 -25 -37 -44 l-36 -33 27 -33 c23 -27 27 -39 22
-68 -3 -19 -17 -46 -31 -61 -14 -14 -25 -34 -25 -44 0 -16 1 -16 24 1 13 10
32 37 42 60 19 43 67 78 96 69 7 -2 32 -7 55 -10 37 -5 42 -3 49 16 10 34 45
57 75 51 33 -6 43 8 34 48 -9 41 -28 46 -91 24 -49 -17 -55 -17 -78 -1 -14 9
-39 16 -55 16 -16 0 -33 5 -36 10 -8 13 -35 13 -35 -1z"/>
<path d="M6084 3495 c-8 -19 3 -35 26 -35 26 0 33 28 10 40 -25 13 -30 13 -36
-5z"/>
<path d="M5514 3446 c-4 -10 -2 -22 4 -28 8 -8 13 -7 18 6 4 10 2 22 -4 28 -8
8 -13 7 -18 -6z"/>
<path d="M6054 3375 c-8 -20 4 -35 27 -35 23 0 26 35 3 44 -22 8 -24 8 -30 -9z"/>
<path d="M4185 3249 c-10 -15 1 -23 20 -15 9 3 13 10 10 16 -8 13 -22 13 -30
-1z"/>
<path d="M1366 3214 c-24 -24 -19 -34 17 -34 33 0 77 23 77 41 0 15 -77 10
-94 -7z"/>
<path d="M4106 3193 c-11 -11 -6 -23 9 -23 8 0 15 4 15 9 0 13 -16 22 -24 14z"/>
<path d="M3958 3079 c-29 -16 -21 -29 18 -29 28 0 35 3 32 17 -4 21 -26 27
-50 12z"/>
<path d="M4130 3045 c-19 -14 -39 -25 -45 -25 -14 0 -45 -63 -45 -90 0 -28 25
-15 51 26 25 41 40 42 73 9 30 -30 32 -30 74 -5 40 25 40 54 -1 58 -16 2 -34
14 -43 28 -20 30 -22 30 -64 -1z"/>
<path d="M3975 2920 c-8 -12 3 -50 15 -50 11 0 40 47 33 54 -10 10 -41 7 -48
-4z"/>
<path d="M1767 2905 c-9 -23 9 -26 28 -5 17 19 17 20 -2 20 -12 0 -23 -7 -26
-15z"/>
<path d="M1622 2888 c-14 -14 -16 -38 -4 -38 14 0 43 36 35 43 -9 10 -17 9
-31 -5z"/>
<path d="M4096 2845 c-9 -24 -8 -25 15 -25 14 0 19 5 17 17 -4 23 -24 27 -32
8z"/>
<path d="M3806 2843 c-13 -13 -6 -84 9 -89 21 -8 65 4 65 18 0 15 -66 78 -74
71z"/>
<path d="M1530 2827 c0 -7 9 -30 19 -50 l19 -37 21 33 c32 53 28 67 -19 67
-26 0 -40 -5 -40 -13z"/>
<path d="M3942 2817 c-28 -29 -27 -33 2 -41 13 -3 30 -8 38 -11 8 -3 24 8 37
26 19 25 21 33 10 40 -25 16 -65 9 -87 -14z"/>
<path d="M6403 2753 c-24 -31 -43 -62 -43 -69 0 -7 12 -22 27 -34 22 -17 157
-137 197 -175 6 -6 75 -68 154 -138 98 -88 147 -125 156 -120 15 9 66 68 66
76 0 10 -42 51 -130 128 -47 40 -90 78 -96 84 -55 51 -169 152 -179 158 -9 5
-12 18 -8 40 4 30 0 38 -38 70 -23 20 -47 37 -53 37 -6 -1 -30 -26 -53 -57z"/>
<path d="M6720 2716 c0 -23 59 -61 73 -47 8 8 4 17 -13 36 -26 27 -60 33 -60
11z"/>
<path d="M3773 2710 c-27 -11 -30 -35 -7 -44 9 -3 36 -6 60 -6 48 0 57 15 28
44 -17 18 -47 20 -81 6z"/>
<path d="M4696 2695 c-19 -28 -20 -35 -6 -35 16 0 51 40 45 50 -10 16 -22 12
-39 -15z"/>
<path d="M4610 2690 c0 -13 5 -20 13 -17 6 2 12 10 12 17 0 7 -6 15 -12 18 -8
2 -13 -5 -13 -18z"/>
<path d="M4165 2651 c-3 -5 -1 -12 5 -16 12 -7 30 2 30 16 0 12 -27 12 -35 0z"/>
<path d="M6282 2608 c-30 -29 -52 -57 -50 -67 5 -25 47 -26 65 -2 8 12 21 21
29 21 8 0 65 -48 125 -107 61 -60 114 -109 119 -111 11 -4 40 22 40 36 0 10
-35 46 -186 194 l-89 86 -53 -50z"/>
<path d="M1196 2551 c-3 -5 2 -32 11 -61 18 -56 45 -79 69 -59 16 13 19 39 4
39 -13 0 -60 52 -60 67 0 16 -17 26 -24 14z"/>
<path d="M4730 2535 c0 -33 58 -70 91 -60 30 10 22 29 -20 53 -45 26 -71 28
-71 7z"/>
<path d="M4270 2496 c0 -15 24 -28 34 -19 13 14 5 33 -14 33 -11 0 -20 -6 -20
-14z"/>
<path d="M1996 2452 c-18 -35 -25 -110 -11 -114 14 -4 43 59 47 101 4 44 -16
51 -36 13z"/>
<path d="M7044 2465 c-7 -18 31 -65 53 -65 24 0 14 36 -17 59 -26 19 -31 20
-36 6z"/>
<path d="M6087 2438 l-38 -33 24 -25 c13 -14 62 -69 109 -122 47 -53 94 -106
105 -117 18 -20 18 -20 61 15 37 32 41 38 30 57 -6 12 -14 24 -17 27 -3 3 -51
55 -106 115 -55 61 -106 111 -115 113 -8 1 -32 -13 -53 -30z"/>
<path d="M4496 2383 c-12 -12 -6 -43 9 -43 8 0 15 9 15 19 0 21 -13 34 -24 24z"/>
<path d="M4700 2340 c-8 -5 -29 -10 -47 -10 -17 0 -34 -4 -37 -9 -11 -17 6
-41 28 -41 29 0 86 36 86 55 0 17 -9 19 -30 5z"/>
<path d="M4310 2320 c0 -16 5 -21 23 -18 12 2 22 10 22 18 0 8 -10 16 -22 18
-18 3 -23 -2 -23 -18z"/>
<path d="M5152 2298 c2 -17 11 -24 31 -26 35 -4 37 20 2 36 -35 16 -37 15 -33
-10z"/>
<path d="M7280 2261 c0 -12 46 -41 54 -34 10 11 -15 43 -34 43 -11 0 -20 -4
-20 -9z"/>
<path d="M5112 2208 c2 -12 10 -23 18 -23 22 0 19 39 -3 43 -15 3 -18 -1 -15
-20z"/>
<path d="M7357 2203 c-11 -10 34 -53 55 -53 23 0 23 22 0 43 -19 18 -44 22
-55 10z"/>
<path d="M4586 2171 c-8 -12 41 -47 51 -37 10 10 -11 40 -30 44 -8 2 -18 -1
-21 -7z"/>
<path d="M7625 2150 c-26 -27 -30 -28 -49 -15 -31 22 -109 19 -131 -5 -19 -21
-15 -35 28 -120 12 -22 11 -29 -6 -52 -11 -14 -16 -31 -13 -37 4 -6 33 -11 64
-11 54 0 61 -3 122 -53 125 -101 250 -177 318 -192 60 -13 51 42 -22 140 -30
40 -121 132 -211 213 -39 35 -46 47 -41 67 5 21 -15 95 -27 95 -2 0 -16 -13
-32 -30z"/>
<path d="M4770 2130 c0 -5 9 -10 20 -10 11 0 20 5 20 10 0 6 -9 10 -20 10 -11
0 -20 -4 -20 -10z"/>
<path d="M6348 1924 c-12 -13 -20 -14 -36 -5 -30 16 -72 13 -79 -5 -3 -9 -1
-32 6 -51 9 -24 10 -38 2 -47 -14 -17 5 -36 37 -36 15 0 52 -24 99 -65 76 -64
141 -105 168 -105 43 0 -9 94 -107 195 -46 48 -58 67 -58 92 0 38 -11 48 -32
27z"/>
<path d="M2374 1845 c-7 -17 24 -58 37 -49 16 10 9 43 -11 54 -16 9 -22 8 -26
-5z"/>
</g>
</svg>
